<svg viewBox="0 0 1024 1024" xmlns="http://www.w3.org/2000/svg">
  
<path d="M392 182.9c-15.3 3.2-22.3 5.9-34.2 13.1-12.8 7.6-13.4 8.1-21.4 18.1-9 11.2-12 16.7-17.4 32.5-8 23.2-7.3.6-7.7 258.9-.3 152-.1 235.3.6 243.5 1.4 16.8 4.8 27.9 14.1 45.3 8.5 15.9 14.4 23 26.3 31.5 15.9 11.5 24.7 15.7 39.7 19 19.2 4.3 20.5 4.4 28.6 3.7 6.2-.6 7.4-1 7.4-2.5 0-2.7-1.1-5.1-2-4.5-2.3 1.4-9.3-3-13.6-8.6-8.6-11.2-11.9-22.9-11.6-40.9.1-6.3.3-136.6.5-289.5l.3-278 2.7-10c2-7.6 2.7-13 2.9-22.3.2-7.7-.1-12.2-.7-12.1-.5 0-7.1 1.3-14.5 2.8z"/>
  
<path d="M456.5 181.7c-1.1.2-3 .6-4.1.8-2.2.5-15.9 19.1-21.8 29.7-3.7 6.5-4.1 11.9-3.1 39.2l.7 20.7 55.7-.1c53.5-.1 56 0 65.1 2 24 5.5 36.7 12.1 53.3 28 18.3 17.4 27.1 35.6 28.4 59 2 37.6-22.2 74.4-56.7 86-12.7 4.3-20.6 5-54 5-17.3 0-45.2.3-62 .7l-30.5.6-.3 43.2-.4 43.3 59.4.1c62.8.1 70.7.3 83.2 2.8 8.1 1.5 22.9 8.4 34 15.8 9.2 6.1 23.2 21.9 28.5 32.1 4.4 8.5 9.6 24.4 11.1 33.7 3.7 23-3 54.8-16.4 77.2-15.8 26.4-38.1 43.1-69.6 51.8-7.1 2-10.7 2.1-68.2 2.6-33.3.3-60.9.8-61.2 1.1-.3.3-.6 11.3-.8 24.5l-.3 24 5.8 11.5c3.1 6.3 6.7 12.7 8 14.1 4.5 5 13.7 11.8 17.4 12.8 5.1 1.4 81.6 1.5 91.3.2 17.6-2.4 22.1-3.2 33.5-6.1 12.6-3.3 36.4-12.6 47.5-18.7 10.2-5.5 25.7-15.9 35.1-23.4 8.1-6.6 24.6-24.1 29.9-31.9 1.3-1.9 3.5-4.9 4.9-6.6 1.4-1.7 3.4-4.4 4.3-6 1-1.6 3.8-6.1 6.3-9.9 4.1-6.3 6.7-11.2 15.5-28.5 1.5-3 4.4-10.2 6.3-16 6.6-19.5 8.7-34.5 8.7-61.5 0-26.8-1.5-37.4-8.6-60.5-8.4-27-20.5-48-39.1-67.9l-7-7.4-3.9 3.5c-10.3 9.3-31.2 22.6-42.9 27.3-9.3 3.7-26.2 8.5-30 8.5-3.7 0-9.7-4.7-11.5-9-2.8-6.8 4.1-11.8 20.1-14.5 5.2-.9 12.2-2.9 15.6-4.5 13.2-6.1 28.9-17.8 43.7-32.6 1.7-1.7 3.9-3.4 4.8-3.7.9-.3 2.6-2.4 3.8-4.7 1.1-2.2 2.7-4 3.4-4 .8 0 2.8-2.5 4.5-5.5 1.7-3 3.7-5.5 4.5-5.5.8 0 1.6-1 2-2.3.3-1.3 2.6-5.4 5.1-9.3 2.5-3.8 5.2-9 5.9-11.5.8-2.5 2.4-6.5 3.5-8.8 5.2-10.2 10.1-36.6 10.1-54.7 0-43.5-11.6-78.6-37.2-112.6-13.2-17.4-28.2-31-50.1-45.2-22.8-14.9-56.2-26.7-81.2-28.6-11.6-.9-96-1.2-100-.3z"/>
  
</svg>
